<?xml version="1.0" encoding="UTF-8" standalone="no"?>
<svg
   xmlns:dc="http://purl.org/dc/elements/1.1/"
   xmlns:cc="http://creativecommons.org/ns#"
   xmlns:rdf="http://www.w3.org/1999/02/22-rdf-syntax-ns#"
   xmlns:svg="http://www.w3.org/2000/svg"
   xmlns="http://www.w3.org/2000/svg"
   viewBox="0 0 618.66669 368"
   height="368"
   width="618.66669"
   xml:space="preserve"
   id="svg2"
   version="1.1"><metadata
     id="metadata8"><rdf:RDF><cc:Work
         rdf:about=""><dc:format>image/svg+xml</dc:format><dc:type
           rdf:resource="http://purl.org/dc/dcmitype/StillImage" /></cc:Work></rdf:RDF></metadata><defs
     id="defs6" /><g
     transform="matrix(1.3333333,0,0,-1.3333333,0,368)"
     id="g10"><g
       transform="scale(0.1)"
       id="g12"><path
         id="path14"
         style="fill:#7d8278;fill-opacity:1;fill-rule:evenodd;stroke:none"
         d="m 3153.2,2096.88 h 566.563 v 98.2422 H 3153.2 Z" /><path
         id="path16"
         style="fill:#7d8278;fill-opacity:1;fill-rule:evenodd;stroke:none"
         d="m 3136.84,1441.92 h 582.93 v 98.2383 h -582.93 z" /><path
         id="path18"
         style="fill:#611111;fill-opacity:1;fill-rule:evenodd;stroke:none"
         d="m 3302.23,1769.42 h 727.809 v 98.2422 H 3302.23 Z" /><path
         id="path20"
         style="fill:#7d8278;fill-opacity:1;fill-rule:evenodd;stroke:none"
         d="m 859.301,2096.88 h 582.891 v 98.2422 H 859.301 Z" /><path
         id="path22"
         style="fill:#7d8278;fill-opacity:1;fill-rule:evenodd;stroke:none"
         d="m 859.301,1441.92 h 582.891 v 98.2383 H 859.301 Z" /><path
         id="path24"
         style="fill:#611111;fill-opacity:1;fill-rule:evenodd;stroke:none"
         d="m 549.801,1769.42 h 708.98 v 98.2422 h -708.98 z" /><path
         id="path26"
         style="fill:#2e303a;fill-opacity:1;fill-rule:evenodd;stroke:none"
         d="m 1802.38,975.27 h 974.22 l 486.37,843.25 -486.37,843.24 H 1802.38 L 1316.09,1818.52 1802.38,975.27 M 2833.16,877.031 H 1745.9 L 1202.34,1818.52 1745.9,2760 h 1087.26 l 543.6,-941.48 -543.6,-941.489" /><path
         id="path28"
         style="fill:#611111;fill-opacity:1;fill-rule:evenodd;stroke:none"
         d="m 2323.83,2323.24 c 41.21,22.85 66.01,35.39 74.33,37.62 21.18,6.09 34.81,6.95 40.94,2.5 3.36,-2.23 5.04,-5.04 5.04,-8.36 0,-6.68 -7.81,-15.04 -23.4,-25.08 -6.13,-3.87 -17.26,-11.13 -33.44,-21.72 38.44,-13.9 71.29,-40.62 98.6,-80.19 10.58,-15.04 15.86,-35.35 15.86,-60.98 0,-37.85 -8.05,-67.11 -24.22,-87.69 -20.59,-26.18 -47.07,-47.35 -79.38,-63.52 18.95,-18.36 31.76,-35.35 38.44,-50.94 7.81,-17.81 11.72,-37.61 11.72,-59.33 0,-36.17 -10.59,-77.39 -31.76,-123.64 -15.04,-33.94 -42.07,-62.07 -81.05,-84.37 -38.99,-22.27 -77.97,-33.4 -116.96,-33.4 -28.94,0 -53.16,6.95 -72.65,20.9 -35.67,25.58 -57.38,54.57 -65.16,86.87 -42.34,-52.38 -86.05,-86.87 -131.17,-103.59 -23.95,-8.91 -54.57,-13.36 -91.87,-13.36 -26.18,0 -52.35,5.55 -78.52,16.68 -28.44,12.27 -49.57,28.13 -63.52,47.62 -21.71,30.08 -32.57,60.7 -32.57,91.91 0,43.99 17.26,78.24 51.79,102.74 13.91,10.04 28.95,15.04 45.12,15.04 17.81,0 33.01,-5.98 45.51,-17.97 12.54,-11.96 18.83,-26.29 18.83,-43.01 0,-21.17 -7.82,-36.76 -23.4,-46.8 -28.4,-18.36 -42.62,-35.62 -42.62,-51.79 0,-6.68 2.5,-13.64 7.54,-20.86 8.32,-12.82 22.54,-19.22 42.58,-19.22 15.58,0 32.03,4.72 49.29,14.22 32.31,17.81 60.71,43.12 85.2,76.01 15.04,20.59 39.3,60.98 72.69,121.13 39.54,70.71 75.47,130.59 107.78,179.61 41.76,64.03 82.97,115.82 123.63,155.35 -15.58,3.36 -31.48,5.04 -47.62,5.04 -37.3,0 -73.79,-7.81 -109.45,-23.39 -55.12,-23.4 -95.78,-49.57 -121.95,-78.52 -22.85,-25.08 -37.89,-55.98 -45.12,-92.73 -1.68,-8.36 -2.5,-16.45 -2.5,-24.22 0,-35.67 16.72,-58.21 50.12,-67.7 17.81,-5 26.72,-13.36 26.72,-25.04 0,-16.72 -8.05,-27.85 -24.22,-33.44 -4.46,-1.64 -9.46,-2.5 -15.04,-2.5 -22.81,0 -42.03,10.59 -57.62,31.76 -17.85,24.5 -26.76,52.07 -26.76,82.7 0,16.72 5.32,45.39 15.9,86.05 10.59,38.99 43.44,79.34 98.56,121.14 67.38,50.11 140.35,75.15 218.86,75.15 36.21,0 68.52,-2.22 96.92,-6.68 z m 4.18,-65.97 c -12.27,-12.27 -24.77,-26.45 -37.58,-42.62 -17.85,-22.27 -35.94,-62.11 -54.3,-119.45 -25.62,-76.29 -46.52,-132 -62.65,-167.08 20.58,9.46 36.17,15.59 46.75,18.36 5.04,1.14 9.5,1.68 13.36,1.68 12.27,0 18.4,-5.86 18.4,-17.54 0,-11.67 -8.9,-19.21 -26.72,-22.53 -21.75,-3.91 -46.52,-18.95 -74.37,-45.12 -17.27,-16.17 -25.9,-36.49 -25.9,-60.98 0,-13.4 3.91,-23.67 11.72,-30.94 17.81,-16.67 36.17,-25.03 55.12,-25.03 21.17,0 43.43,11.95 66.83,35.89 11.68,12.27 23.4,30.63 35.08,55.16 13.95,31.17 20.9,60.16 20.9,86.88 0,6.13 -0.55,12.26 -1.68,18.35 -3.91,27.86 -12.54,45.12 -25.9,51.8 0,0.59 -12.54,2.81 -37.58,6.68 -15.58,0 -23.4,8.63 -23.4,25.9 0,17.85 11.14,28.71 33.4,32.58 17.85,0.58 35.67,1.4 53.48,2.54 35.66,4.45 60.43,34.49 74.33,90.19 1.68,6.68 2.54,13.67 2.54,20.9 0,31.76 -12.26,55.39 -36.75,71.02 -7.27,4.45 -15.63,8.9 -25.08,13.36 z" /><path
         id="path30"
         style="fill:#611111;fill-opacity:1;fill-rule:evenodd;stroke:none"
         d="m 2175.9,1391.95 c 10.15,-9.18 23.9,-13.75 41.33,-13.75 22.73,0 42.77,7.23 60.19,21.76 20.28,16.92 47.35,48.56 81.21,94.96 -63.32,30 -95,67.46 -95,112.42 0,64.3 29.49,105.39 88.48,123.25 9.18,2.93 19.57,4.37 31.17,4.37 41.56,0 79.26,-13.05 113.13,-39.18 55.11,69.61 119.14,121.6 192.14,155.94 45.94,21.25 89.46,31.87 130.55,31.87 31.41,0 52.42,-5.31 63.09,-15.93 8.2,-8.21 12.3,-15.71 12.3,-22.5 0,-2.39 -0.47,-5.2 -1.44,-8.32 -0.98,-3.13 -1.45,-5.2 -1.45,-6.18 0,-2.89 -5.82,-12.81 -17.42,-29.72 -14.96,-21.76 -54.61,-93.56 -118.91,-215.35 -15.47,-29.03 -38.67,-75.67 -69.61,-139.97 -21.28,-43.51 -34.8,-68.39 -40.62,-74.68 -12.54,-14.49 -32.62,-27.54 -60.16,-39.14 -7.73,-3.4 -19.37,-5.08 -34.84,-5.08 -15.94,0.47 -25.86,3.36 -29.73,8.67 -5.31,8.24 -7.97,13.79 -7.97,16.68 0,8.71 4.38,22.97 13.05,42.81 0,4.81 0.74,14.73 2.19,29.73 1.44,14.96 2.19,27.54 2.19,37.69 0,64.3 -5.59,112.15 -16.68,143.6 -7.27,-11.13 -23.95,-42.31 -50.04,-93.56 7.73,-0.5 15.7,-1.21 23.9,-2.18 10.67,-1.92 15.98,-6.06 15.98,-12.31 0,-5.35 -5.55,-10.66 -16.68,-15.97 -13.05,-5.79 -28.05,-8.72 -44.96,-8.72 l -1.45,-2.89 c -27.07,-54.14 -65.27,-94.49 -114.57,-121.09 -35.78,-18.87 -70.82,-28.28 -105.15,-28.28 -5.32,0 -10.16,0.23 -14.5,0.74 -29.49,4.34 -56.09,14.49 -79.76,30.43 -33.36,22.73 -50.04,52.46 -50.04,89.22 0,38.16 10.63,67.19 31.91,86.99 17.39,15.47 38.17,23.44 62.35,23.95 15.97,0.47 29.61,-4.73 40.97,-15.59 11.37,-10.9 17.04,-24.3 17.04,-40.27 0,-16.41 -5.67,-30.67 -17.04,-42.78 -11.36,-12.07 -25,-18.12 -40.97,-18.12 -2.89,-5.78 -4.1,-12.81 -3.63,-21.02 0.5,-9.68 3.63,-17.18 9.45,-22.5 z m 398.08,95.75 c 38.21,68.63 80.24,137.77 126.18,207.38 26.09,40.12 50.78,75.39 73.98,105.86 9.18,12.07 13.75,21.52 13.75,28.28 0,7.26 -5.31,10.9 -15.94,10.9 -5.82,0 -13.55,-1.21 -23.2,-3.64 -41.56,-10.66 -81.95,-38.2 -121.09,-82.69 -35.32,-39.61 -65.51,-77.07 -90.67,-112.38 20.31,-45.94 32.66,-97.15 36.99,-153.71 z m -189.25,40.58 c 17.89,27.07 47.61,71.8 89.18,134.14 -31.41,25.16 -63.32,37.74 -95.71,37.74 -22.22,0 -39.41,-7.5 -51.48,-22.5 -15.47,-19.34 -23.2,-39.89 -23.2,-61.64 0,-29.5 9.64,-50 28.98,-61.61 7.73,-4.84 15.23,-9.68 22.5,-14.53 10.62,-5.78 20.55,-9.65 29.73,-11.6 z" /><path
         id="path32"
         style="fill:#621212;fill-opacity:1;fill-rule:nonzero;stroke:none"
         d="m 0,668.949 c 31.6406,0 56.8008,0 75.4688,0 18.75,0 30.0822,-0.078 34.0622,-0.16 17.379,-0.859 29.61,-2.891 36.719,-6.09 7.191,-3.25 12.852,-6.84 17.031,-10.789 9.059,-8.98 13.598,-19.762 13.598,-32.34 0,-12.621 -4.379,-23.672 -13.129,-33.121 -2.73,-2.929 -5.859,-5.429 -9.371,-7.5 19.062,-3.558 34.68,-11.57 46.871,-24.07 13.199,-13.668 19.84,-30.27 19.84,-49.84 0,-19.918 -6.168,-37.027 -18.43,-51.41 -17.191,-19.918 -43.75,-30.777 -79.691,-32.649 -9.18,-0.55 -18.239,-0.781 -27.1877,-0.781 H 0 Z m 115.309,-86.57 9.07,-0.93 h 2.812 c 9.137,0 17.188,3.352 24.059,10.153 7.191,7.269 10.781,16.168 10.781,26.718 0,12.891 -5.551,22.809 -16.562,29.692 -5.629,3.508 -11.25,5.617 -16.879,6.25 -5.539,0.617 -9.918,1.008 -13.121,1.25 -6.559,0.508 -15.16,0.777 -25.7776,0.777 V 433.16 h 19.5276 c 19.883,0 36.09,2.5 48.59,7.5 15,5.078 26.921,13.36 35.781,24.852 8.32,10.937 12.5,22.34 12.5,34.218 0,11.95 -1.789,22.071 -5.309,30.309 -3.551,8.199 -8.672,15.191 -15.312,20.941 -13.559,11.872 -32.457,17.809 -56.719,17.809 l -12.191,-1.09 c -3.75,0 -6.52,0.699 -8.278,2.18 -1.801,1.57 -2.66,3.32 -2.66,5.32 0,4.762 3.207,7.18 9.688,7.18 z M 381.211,431.762 c -15,-9.922 -31.641,-14.852 -49.84,-14.852 -24.301,0 -43.75,6.102 -58.441,18.289 -15.231,12.5 -22.809,29.883 -22.809,52.18 0,19.691 7.539,35.82 22.649,48.441 15.511,12.809 35.859,19.219 61.101,19.219 16.867,0 32.649,-3.238 47.34,-9.687 v 48.277 c -10.621,3.133 -20,4.691 -28.121,4.691 -8.129,0 -15,-0.39 -20.629,-1.09 -5.621,-0.75 -11.012,-1.8 -16.09,-3.128 -10.859,-3.122 -19.07,-7.262 -24.691,-12.34 -3.36,-3.051 -6.371,-4.532 -9.059,-4.532 -2.742,0 -4.812,0.661 -6.25,2.032 -1.371,1.328 -2.031,2.808 -2.031,4.367 0,1.641 0.308,3.172 0.93,4.531 0.628,1.328 1.718,2.699 3.281,4.07 3.519,3.122 9.418,6.168 17.66,9.219 16.949,6.442 33.988,9.68 51.09,9.68 52.078,0 85.32,-12.457 99.687,-37.34 6.332,-10.937 9.532,-25.43 9.532,-43.437 V 420.199 h -75.309 z m 0,99.84 c -14.691,7.187 -29.371,10.777 -44.063,10.777 -2.418,0 -4.648,-0.149 -6.718,-0.469 V 430.039 c 0.621,-0.117 1.25,-0.16 1.871,-0.16 0.711,0 1.449,0 2.187,0 16.024,0 31.602,5.672 46.723,17.031 z" /><path
         id="path34"
         style="fill:#621212;fill-opacity:1;fill-rule:nonzero;stroke:none"
         d="m 548.789,638.629 c -12.109,0 -21.519,2.703 -28.277,8.133 -6.801,5.386 -10.16,12.5 -10.16,21.25 0,7.379 3.75,13.75 11.25,19.058 7.886,5.629 16.289,8.442 25.16,8.442 8.937,0 15.816,-0.903 20.617,-2.66 4.891,-1.801 9.07,-4.063 12.5,-6.872 6.762,-5.75 10.16,-12.429 10.16,-20 0,-7.621 -3.867,-14.07 -11.559,-19.378 -7.742,-5.313 -17.621,-7.973 -29.691,-7.973 z M 511.91,608.012 h 75.4688 V 420.199 H 511.91 Z" /><path
         id="path36"
         style="fill:#621212;fill-opacity:1;fill-rule:nonzero;stroke:none"
         d="m 644.801,608.012 h 75.469 v -55.313 c 8.128,20.071 16.8,34.84 26.101,44.211 9.367,9.461 18.75,14.219 28.117,14.219 5.313,0 9.461,-1.399 12.5,-4.219 3.133,-2.73 4.692,-5.781 4.692,-9.211 0,-3.359 -0.469,-6.058 -1.41,-8.129 -0.93,-1.988 -2.149,-3.672 -3.59,-5 -3.239,-2.929 -6.25,-4.371 -9.059,-4.371 -4.5,0 -7.781,0.461 -9.851,1.403 -3.668,1.636 -6.872,2.5 -9.68,2.5 -2.82,0 -6.41,-2.301 -10.789,-6.872 -4.289,-4.5 -8.391,-10.75 -12.34,-18.75 -9.801,-19.378 -14.691,-40.468 -14.691,-63.281 v -75 h -75.469 z" /><path
         id="path38"
         style="fill:#621212;fill-opacity:1;fill-rule:nonzero;stroke:none"
         d="m 977.379,462.852 c 4.57,0 6.883,-2.114 6.883,-6.25 0,-3.122 -2.114,-6.872 -6.25,-11.25 -18.563,-18.981 -43.91,-28.442 -76.102,-28.442 -28.98,0 -53.359,8.68 -73.121,26.102 -20.551,18.199 -30.777,41.168 -30.777,68.898 0,28.442 9.258,51.762 27.808,70 19.571,19.461 45.551,29.219 77.969,29.219 26.012,0 47.891,-7.93 65.621,-23.75 19.07,-16.988 28.602,-39.328 28.602,-67.027 0,-3.981 -0.121,-8.204 -0.313,-12.653 H 881.762 v -75.32 c 7.886,-1.68 16.867,-2.5 26.867,-2.5 21.019,0 38.992,6.961 53.91,20.941 3.012,3.012 5.191,5.391 6.563,7.192 2.699,3.199 5.468,4.84 8.277,4.84 z m -47.027,132.027 c -7.622,2.269 -16.211,3.441 -25.782,3.441 -9.609,0 -17.191,-0.699 -22.808,-2.031 v -75.777 h 48.59 z" /><path
         id="path40"
         style="fill:#621212;fill-opacity:1;fill-rule:nonzero;stroke:none"
         d="m 1029.02,443.789 c 0,1.762 0.63,3.359 1.88,4.84 1.25,1.453 2.85,2.191 4.84,2.191 1.96,0 3.6,-0.59 4.85,-1.718 0,0 1.44,-1.372 4.37,-4.063 12.19,-10.738 29.26,-16.09 51.25,-16.09 14.69,0 24.14,3.039 28.44,9.211 1.13,1.641 1.72,3.32 1.72,5 0,1.641 -0.32,3.289 -0.94,4.852 -0.63,1.636 -2.03,3.59 -4.22,5.777 -2.11,2.262 -5.08,5.043 -8.91,8.281 l -15.46,12.5 c -25.55,19.879 -43.05,36.02 -52.5,48.442 -8.68,11.328 -12.97,22.968 -12.97,34.84 0,14.878 6.79,27.378 20.47,37.5 14.14,10.507 32.5,15.777 55,15.777 15.82,0 28.32,-1.828 37.5,-5.469 9.14,-3.672 15.62,-6.988 19.37,-10 3.75,-2.93 5.63,-5.621 5.63,-8.121 0,-5 -2.04,-7.5 -6.1,-7.5 -1.87,0 -3.59,0.66 -5.15,2.031 -1.57,1.328 -4.69,3.59 -9.38,6.719 -4.69,3.199 -10.9,5.781 -18.59,7.66 -7.74,1.871 -14.96,2.813 -21.72,2.813 -6.68,0 -11.41,-1.063 -14.22,-3.133 -2.73,-2.109 -4.06,-4.18 -4.06,-6.25 0,-1.988 0.39,-3.899 1.25,-5.777 0.82,-1.801 2.38,-3.903 4.68,-6.403 5.08,-6.058 13.33,-13.25 24.69,-21.57 11.33,-8.359 20.94,-16.008 28.75,-22.969 7.89,-6.871 14.1,-13.238 18.6,-19.058 8,-10.551 12.03,-21.211 12.03,-32.032 0,-10.738 -2,-19.961 -5.94,-27.66 -3.98,-7.73 -9.65,-14.328 -17.03,-19.84 -15.63,-11.8 -36.41,-17.66 -62.35,-17.66 -20.93,0 -38.35,3.949 -52.18,11.879 -9.07,5.082 -13.6,10.082 -13.6,15 z" /><path
         id="path42"
         style="fill:#621212;fill-opacity:1;fill-rule:nonzero;stroke:none"
         d="m 1347.46,451.449 c -21.37,0 -36.01,0.192 -43.91,0.621 l -5,-12.191 c -1.56,-3.43 -2.96,-7.027 -4.21,-10.777 -2.74,-7.192 -6.49,-10.782 -11.25,-10.782 -2.31,0 -4.18,0.7 -5.63,2.032 -1.37,1.449 -2.03,2.886 -2.03,4.378 0,2.571 1.13,5.469 3.44,8.59 3.43,5 6.87,11.45 10.31,19.379 -10.12,0.93 -15.16,3.821 -15.16,8.75 0,5 2.86,7.5 8.6,7.5 3.51,0 7.65,-0.629 12.34,-1.879 l 87.66,213.129 120.31,-260 h -91.56 l -14.69,31.25 z m -38.28,14.211 c 11.25,-0.93 21.33,-1.398 30.31,-1.398 h 51.41 l -43.91,94.84 z" /><path
         id="path44"
         style="fill:#621212;fill-opacity:1;fill-rule:nonzero;stroke:none"
         d="m 1527.54,443.789 c 0,1.762 0.62,3.359 1.87,4.84 1.25,1.453 2.86,2.191 4.85,2.191 1.95,0 3.59,-0.59 4.84,-1.718 0,0 1.45,-1.372 4.38,-4.063 12.18,-10.738 29.25,-16.09 51.25,-16.09 14.68,0 24.14,3.039 28.43,9.211 1.14,1.641 1.72,3.32 1.72,5 0,1.641 -0.31,3.289 -0.93,4.852 -0.63,1.636 -2.04,3.59 -4.22,5.777 -2.11,2.262 -5.08,5.043 -8.91,8.281 l -15.47,12.5 c -25.55,19.879 -43.05,36.02 -52.5,48.442 -8.67,11.328 -12.97,22.968 -12.97,34.84 0,14.878 6.8,27.378 20.47,37.5 14.14,10.507 32.5,15.777 55,15.777 15.82,0 28.32,-1.828 37.5,-5.469 9.14,-3.672 15.63,-6.988 19.38,-10 3.75,-2.93 5.62,-5.621 5.62,-8.121 0,-5 -2.03,-7.5 -6.09,-7.5 -1.88,0 -3.6,0.66 -5.16,2.031 -1.56,1.328 -4.69,3.59 -9.37,6.719 -4.69,3.199 -10.9,5.781 -18.6,7.66 -7.73,1.871 -14.96,2.813 -21.72,2.813 -6.68,0 -11.4,-1.063 -14.21,-3.133 -2.74,-2.109 -4.07,-4.18 -4.07,-6.25 0,-1.988 0.39,-3.899 1.25,-5.777 0.82,-1.801 2.39,-3.903 4.69,-6.403 5.08,-6.058 13.32,-13.25 24.69,-21.57 11.33,-8.359 20.94,-16.008 28.75,-22.969 7.89,-6.871 14.1,-13.238 18.59,-19.058 8.01,-10.551 12.03,-21.211 12.03,-32.032 0,-10.738 -1.99,-19.961 -5.93,-27.66 -3.99,-7.73 -9.65,-14.328 -17.04,-19.84 -15.62,-11.8 -36.4,-17.66 -62.34,-17.66 -20.94,0 -38.36,3.949 -52.19,11.879 -9.06,5.082 -13.59,10.082 -13.59,15 z" /><path
         id="path46"
         style="fill:#621212;fill-opacity:1;fill-rule:nonzero;stroke:none"
         d="m 1884.41,462.852 c 4.57,0 6.88,-2.114 6.88,-6.25 0,-3.122 -2.11,-6.872 -6.25,-11.25 -18.56,-18.981 -43.91,-28.442 -76.09,-28.442 -28.99,0 -53.36,8.68 -73.13,26.102 -20.55,18.199 -30.78,41.168 -30.78,68.898 0,28.442 9.26,51.762 27.81,70 19.57,19.461 45.55,29.219 77.97,29.219 26.02,0 47.89,-7.93 65.63,-23.75 19.06,-16.988 28.59,-39.328 28.59,-67.027 0,-3.981 -0.12,-8.204 -0.31,-12.653 h -115.94 v -75.32 c 7.89,-1.68 16.87,-2.5 26.87,-2.5 21.02,0 38.99,6.961 53.91,20.941 3.01,3.012 5.2,5.391 6.56,7.192 2.7,3.199 5.47,4.84 8.28,4.84 z m -47.03,132.027 c -7.61,2.269 -16.21,3.441 -25.78,3.441 -9.61,0 -17.19,-0.699 -22.81,-2.031 v -75.777 h 48.59 z" /><path
         id="path48"
         style="fill:#621212;fill-opacity:1;fill-rule:nonzero;stroke:none"
         d="m 1936.05,443.789 c 0,1.762 0.63,3.359 1.88,4.84 1.25,1.453 2.85,2.191 4.84,2.191 1.96,0 3.6,-0.59 4.85,-1.718 0,0 1.44,-1.372 4.37,-4.063 12.19,-10.738 29.26,-16.09 51.25,-16.09 14.69,0 24.14,3.039 28.44,9.211 1.13,1.641 1.72,3.32 1.72,5 0,1.641 -0.31,3.289 -0.94,4.852 -0.62,1.636 -2.03,3.59 -4.22,5.777 -2.11,2.262 -5.08,5.043 -8.9,8.281 l -15.47,12.5 c -25.55,19.879 -43.05,36.02 -52.5,48.442 -8.67,11.328 -12.97,22.968 -12.97,34.84 0,14.878 6.8,27.378 20.47,37.5 14.14,10.507 32.5,15.777 55,15.777 15.82,0 28.32,-1.828 37.5,-5.469 9.14,-3.672 15.62,-6.988 19.37,-10 3.75,-2.93 5.63,-5.621 5.63,-8.121 0,-5 -2.03,-7.5 -6.1,-7.5 -1.87,0 -3.59,0.66 -5.15,2.031 -1.57,1.328 -4.69,3.59 -9.38,6.719 -4.69,3.199 -10.9,5.781 -18.59,7.66 -7.74,1.871 -14.96,2.813 -21.72,2.813 -6.68,0 -11.41,-1.063 -14.22,-3.133 -2.73,-2.109 -4.06,-4.18 -4.06,-6.25 0,-1.988 0.39,-3.899 1.25,-5.777 0.82,-1.801 2.38,-3.903 4.69,-6.403 5.07,-6.058 13.32,-13.25 24.68,-21.57 11.33,-8.359 20.94,-16.008 28.75,-22.969 7.89,-6.871 14.1,-13.238 18.6,-19.058 8,-10.551 12.03,-21.211 12.03,-32.032 0,-10.738 -1.99,-19.961 -5.94,-27.66 -3.98,-7.73 -9.65,-14.328 -17.03,-19.84 -15.63,-11.8 -36.41,-17.66 -62.34,-17.66 -20.94,0 -38.36,3.949 -52.19,11.879 -9.06,5.082 -13.6,10.082 -13.6,15 z" /><path
         id="path50"
         style="fill:#621212;fill-opacity:1;fill-rule:nonzero;stroke:none"
         d="m 2113.55,515.199 c 0,14.063 2.54,26.789 7.66,38.281 5.08,11.559 12.11,21.602 21.09,30.149 19.15,18.32 43.29,27.5 72.35,27.5 29.69,0 53.83,-9.488 72.5,-28.43 17.81,-18.051 26.72,-40.75 26.72,-68.129 0,-27.5 -9.18,-50.55 -27.5,-69.058 -18.87,-19.063 -42.97,-28.602 -72.35,-28.602 -28.75,0 -52.57,9.07 -71.4,27.192 -19.38,18.75 -29.07,42.418 -29.07,71.097 z m 95.47,-85.16 c 0.94,-0.117 1.88,-0.16 2.82,-0.16 h 2.5 c 23.63,0 43.47,7.351 59.53,22.031 17.07,15.711 25.62,36.449 25.62,62.192 0,25.078 -8.04,45.386 -24.06,60.937 -15.86,15.512 -36.25,23.281 -61.25,23.281 h -2.66 c -0.86,0 -1.68,-0.082 -2.5,-0.16 z" /><path
         id="path52"
         style="fill:#621212;fill-opacity:1;fill-rule:nonzero;stroke:none"
         d="m 2359.02,608.012 h 75.47 v -55.313 c 8.13,20.071 16.8,34.84 26.1,44.211 9.37,9.461 18.75,14.219 28.12,14.219 5.31,0 9.45,-1.399 12.5,-4.219 3.13,-2.73 4.69,-5.781 4.69,-9.211 0,-3.359 -0.47,-6.058 -1.41,-8.129 -0.94,-1.988 -2.15,-3.672 -3.59,-5 -3.24,-2.929 -6.25,-4.371 -9.06,-4.371 -4.5,0 -7.78,0.461 -9.85,1.403 -3.67,1.636 -6.87,2.5 -9.69,2.5 -2.81,0 -6.4,-2.301 -10.78,-6.872 -4.29,-4.5 -8.4,-10.75 -12.34,-18.75 -9.8,-19.378 -14.69,-40.468 -14.69,-63.281 v -75 h -75.47 z" /><path
         id="path54"
         style="fill:#621212;fill-opacity:1;fill-rule:nonzero;stroke:none"
         d="m 2645.98,431.762 c -15,-9.922 -31.64,-14.852 -49.85,-14.852 -24.29,0 -43.75,6.102 -58.43,18.289 -15.24,12.5 -22.82,29.883 -22.82,52.18 0,19.691 7.54,35.82 22.66,48.441 15.51,12.809 35.86,19.219 61.09,19.219 16.88,0 32.66,-3.238 47.35,-9.687 v 48.277 c -10.63,3.133 -20,4.691 -28.13,4.691 -8.12,0 -15,-0.39 -20.62,-1.09 -5.63,-0.75 -11.02,-1.8 -16.1,-3.128 -10.86,-3.122 -19.06,-7.262 -24.68,-12.34 -3.36,-3.051 -6.37,-4.532 -9.07,-4.532 -2.73,0 -4.8,0.661 -6.25,2.032 -1.36,1.328 -2.03,2.808 -2.03,4.367 0,1.641 0.31,3.172 0.94,4.531 0.62,1.328 1.72,2.699 3.28,4.07 3.52,3.122 9.41,6.168 17.66,9.219 16.95,6.442 33.98,9.68 51.09,9.68 52.07,0 85.31,-12.457 99.69,-37.34 6.33,-10.937 9.53,-25.43 9.53,-43.437 V 420.199 h -75.31 z m 0,99.84 c -14.69,7.187 -29.38,10.777 -44.07,10.777 -2.42,0 -4.64,-0.149 -6.71,-0.469 V 430.039 c 0.62,-0.117 1.25,-0.16 1.87,-0.16 0.7,0 1.45,0 2.19,0 16.01,0 31.6,5.672 46.72,17.031 z" /><path
         id="path56"
         style="fill:#621212;fill-opacity:1;fill-rule:nonzero;stroke:none"
         d="m 2980.12,559.41 c 0.31,-2.808 0.47,-5.621 0.47,-8.43 V 420.199 h -75.47 V 590.66 c -1.25,0.629 -2.78,0.942 -4.53,0.942 h -5.63 c -9.18,0 -19.84,-6.25 -32.03,-18.75 -3.75,-3.981 -7.34,-8.282 -10.78,-12.973 v -139.68 h -75.47 v 187.813 h 75.47 V 579.57 c 19.88,21.02 42.07,31.559 66.56,31.559 31.56,0 51.02,-11.719 58.44,-35.149 10.08,11.559 21.17,20.309 33.28,26.25 12.19,5.93 24.41,8.899 36.72,8.899 20.94,0 36.44,-5 46.56,-15 10.08,-9.918 15.16,-24.957 15.16,-45.149 V 420.199 H 3033.4 V 590.82 c -1.06,0.512 -3.71,0.782 -7.97,0.782 -4.18,0 -8.05,-0.782 -11.56,-2.34 -3.56,-1.563 -7.19,-3.75 -10.94,-6.563 -8.24,-6.058 -15.86,-13.828 -22.81,-23.289 z" /><path
         id="path58"
         style="fill:#621212;fill-opacity:1;fill-rule:nonzero;stroke:none"
         d="m 3203.09,638.629 c -12.11,0 -21.53,2.703 -28.29,8.133 -6.79,5.386 -10.15,12.5 -10.15,21.25 0,7.379 3.75,13.75 11.25,19.058 7.89,5.629 16.29,8.442 25.15,8.442 8.95,0 15.83,-0.903 20.63,-2.66 4.88,-1.801 9.06,-4.063 12.5,-6.872 6.76,-5.75 10.16,-12.429 10.16,-20 0,-7.621 -3.87,-14.07 -11.57,-19.378 -7.73,-5.313 -17.61,-7.973 -29.68,-7.973 z m -36.88,-30.617 h 75.4688 V 420.199 H 3166.21 Z" /><path
         id="path60"
         style="fill:#621212;fill-opacity:1;fill-rule:nonzero;stroke:none"
         d="m 3462.23,462.852 c 4.57,0 6.87,-2.114 6.87,-6.25 0,-3.122 -2.11,-6.872 -6.25,-11.25 -18.55,-18.981 -43.9,-28.442 -76.09,-28.442 -28.99,0 -53.36,8.68 -73.13,26.102 -20.54,18.199 -30.78,41.168 -30.78,68.898 0,28.442 9.26,51.762 27.81,70 19.57,19.461 45.55,29.219 77.97,29.219 26.02,0 47.89,-7.93 65.63,-23.75 19.06,-16.988 28.59,-39.328 28.59,-67.027 0,-3.981 -0.12,-8.204 -0.31,-12.653 H 3366.6 v -75.32 c 7.89,-1.68 16.88,-2.5 26.88,-2.5 21.01,0 38.98,6.961 53.9,20.941 3.01,3.012 5.2,5.391 6.57,7.192 2.69,3.199 5.46,4.84 8.28,4.84 z m -47.03,132.027 c -7.62,2.269 -16.22,3.441 -25.79,3.441 -9.61,0 -17.18,-0.699 -22.81,-2.031 v -75.777 h 48.6 z" /><path
         id="path62"
         style="fill:#621212;fill-opacity:1;fill-rule:nonzero;stroke:none"
         d="m 3657.62,588.789 c -2.93,1.871 -6.1,2.813 -9.53,2.813 -3.36,0 -6.84,-0.782 -10.47,-2.34 -3.67,-1.563 -7.46,-3.75 -11.41,-6.563 -8.36,-6.058 -16.05,-14.027 -23.12,-23.91 v -138.59 h -75.47 v 187.813 h 75.47 v -30.16 c 20.07,22.187 42.81,33.277 68.12,33.277 41.33,0 62.03,-20.078 62.03,-60.149 V 420.199 h -75.62 z" /><path
         id="path64"
         style="fill:#621212;fill-opacity:1;fill-rule:nonzero;stroke:none"
         d="m 3862.77,416.91 c -45.93,0 -68.9,20.942 -68.9,62.82 l -0.16,115.309 -20.16,-0.777 c -6.36,0 -9.53,2.379 -9.53,7.187 0,4.762 3.36,7.18 10.16,7.18 l 16.87,-0.617 h 2.66 v 27.187 l 75.47,33.75 v -60.937 h 23.44 l 16.72,0.617 c 6.95,0 10.46,-2.457 10.46,-7.34 0,-2.309 -1.01,-4.059 -2.96,-5.309 -2,-1.179 -4.18,-1.718 -6.57,-1.718 l -21.87,0.777 h -19.22 v -165.16 c 13.63,0.203 25.04,4.101 34.22,11.723 4.37,3.32 7.42,7.539 9.22,12.66 1.76,5.187 3.36,8.508 4.84,10 1.56,1.437 3.32,2.187 5.31,2.187 1.96,0 3.64,-0.789 5,-2.347 1.45,-1.563 2.19,-3.442 2.19,-5.622 0,-2.191 -0.62,-4.648 -1.87,-7.351 -1.18,-2.609 -2.89,-5.391 -5.16,-8.277 -5.31,-6.563 -11.41,-11.801 -18.28,-15.622 -12.62,-6.878 -26.56,-10.32 -41.88,-10.32 z" /><path
         id="path66"
         style="fill:#621212;fill-opacity:1;fill-rule:nonzero;stroke:none"
         d="m 3943.79,515.199 c 0,14.063 2.54,26.789 7.66,38.281 5.07,11.559 12.1,21.602 21.09,30.149 19.14,18.32 43.28,27.5 72.34,27.5 29.69,0 53.83,-9.488 72.5,-28.43 17.82,-18.051 26.72,-40.75 26.72,-68.129 0,-27.5 -9.18,-50.55 -27.5,-69.058 -18.87,-19.063 -42.97,-28.602 -72.34,-28.602 -28.75,0 -52.58,9.07 -71.41,27.192 -19.37,18.75 -29.06,42.418 -29.06,71.097 z m 95.47,-85.16 c 0.94,-0.117 1.87,-0.16 2.81,-0.16 h 2.5 c 23.63,0 43.48,7.351 59.53,22.031 17.07,15.711 25.63,36.449 25.63,62.192 0,25.078 -8.05,45.386 -24.07,60.937 -15.86,15.512 -36.25,23.281 -61.25,23.281 h -2.65 c -0.86,0 -1.68,-0.082 -2.5,-0.16 z" /><path
         id="path68"
         style="fill:#621212;fill-opacity:1;fill-rule:nonzero;stroke:none"
         d="m 4270.04,432.852 c -4.06,2.378 -7.62,4.847 -10.63,7.347 -3.04,2.571 -4.53,5.352 -4.53,8.281 0,5.622 2.42,8.43 7.35,8.43 3.12,0 6.6,-1.789 10.47,-5.308 3.82,-3.442 8.16,-6.52 12.96,-9.223 4.77,-2.609 10,-4.84 15.63,-6.719 11.64,-3.859 22.38,-5.781 32.19,-5.781 9.88,0 17.5,0.633 22.81,1.883 5.31,1.328 9.76,3.117 13.44,5.308 7.69,4.77 11.56,10.942 11.56,18.442 0,6.949 -3.36,13.937 -10,20.937 -5.63,5.93 -13.59,13.039 -23.91,21.403 l -30,23.597 c -30.11,23.199 -47.89,44.41 -53.28,63.59 -1.87,6.641 -2.81,14.102 -2.81,22.34 0,8.211 1.8,16.293 5.47,24.223 3.75,8.007 9.26,15 16.56,20.937 15.51,13.012 36.72,19.531 63.59,19.531 13.64,0 25.94,-2.031 36.88,-6.09 10.94,-3.992 18.36,-7.582 22.34,-10.781 3.95,-3.129 5.94,-6.019 5.94,-8.597 0,-5.43 -2.27,-8.122 -6.72,-8.122 -2.5,0 -5.27,1.29 -8.28,3.899 -2.93,2.582 -6.17,4.851 -9.69,6.723 -3.55,1.949 -7.61,3.75 -12.18,5.308 -9.93,3.211 -19.61,4.852 -29.07,4.852 -17.42,0 -26.09,-5.742 -26.09,-17.192 0,-4.8 1.56,-9.3 4.69,-13.441 5.62,-7.109 16.6,-17.297 32.97,-30.617 16.32,-13.364 29.45,-25 39.37,-35 9.88,-9.922 17.42,-18.832 22.66,-26.723 8.12,-12.617 12.18,-25.699 12.18,-39.219 0,-13.55 -2.42,-25.082 -7.18,-34.531 -4.69,-9.379 -11.33,-17.457 -19.85,-24.219 -18.04,-14.3 -40.43,-21.41 -67.18,-21.41 -26.68,0 -49.22,5.32 -67.66,15.942 z" /><path
         id="path70"
         style="fill:#621212;fill-opacity:1;fill-rule:nonzero;stroke:none"
         d="m 4630.2,436.129 c 6.25,0 9.37,-2.609 9.37,-7.809 0,-2.109 -1.25,-3.98 -3.75,-5.621 -2.5,-1.679 -6.99,-2.5 -13.44,-2.5 h -142.81 v 248.75 h 89.69 V 431.762 h 32.81 c 7.38,0 13.75,0.699 19.06,2.187 5.39,1.442 8.44,2.18 9.07,2.18 z" /><path
         id="path72"
         style="fill:#621212;fill-opacity:1;fill-rule:nonzero;stroke:none"
         d="m 786.371,43.7891 c 3.828,0 5.777,-2.1875 5.777,-6.5586 0,-3.5586 -2.769,-7.1485 -8.277,-10.7813 C 773.75,19.7695 765.199,15.3906 758.238,13.3203 745.121,9.48828 731.289,7.53906 716.84,7.53906 c -14.5,0 -28.399,2.58204 -41.719,7.66014 -13.359,5.1914 -24.769,12.3828 -34.223,21.5625 -19.687,19.4492 -29.527,44.6094 -29.527,75.4683 0,14.758 2.731,28.36 8.277,40.782 5.622,12.379 13.321,23.008 23.122,31.867 20.71,18.832 46.8,28.281 78.281,28.281 17.699,0 33.211,-3.039 46.57,-9.058 14.258,-6.372 21.399,-11.801 21.399,-16.25 0,-1.801 -0.622,-3.364 -1.872,-4.692 -1.168,-1.25 -2.457,-1.871 -3.91,-1.871 -3.039,0 -5.777,1.293 -8.277,3.91 -2.422,2.692 -5.742,5.153 -10,7.34 -4.18,2.191 -8.75,4.102 -13.75,5.781 -10.231,3.012 -19.492,4.532 -27.813,4.532 -8.359,0 -15.277,-0.551 -20.777,-1.563 V 19.7305 c 6.641,-1.1797 12.539,-1.7188 17.649,-1.7188 5.082,0 10.242,0.3086 15.468,0.9375 5.313,0.6992 10.512,1.7891 15.633,3.2813 11.438,3.4297 20.039,8.4297 25.777,15 2.071,2.5 3.672,4.2187 4.84,5.1484 1.25,0.9414 2.703,1.4102 4.383,1.4102 z m 27.258,42.8125 c 0,11.3281 2.031,21.6364 6.101,30.9374 4.141,9.371 9.84,17.5 17.032,24.371 15.508,14.692 35,22.039 58.437,22.039 23.821,0 43.281,-7.66 58.281,-22.969 14.372,-14.378 21.559,-32.621 21.559,-54.6909 0,-22.1875 -7.418,-40.7383 -22.187,-55.6289 C 937.621,15.2305 918.199,7.53906 894.57,7.53906 c -23.121,0 -42.3,7.26174 -57.5,21.87114 -15.621,15.0781 -23.441,34.1406 -23.441,57.1914 z M 890.66,18.1602 c 0.711,-0.1094 1.449,-0.1485 2.192,-0.1485 h 2.027 c 19.07,0 35.043,5.8594 47.973,17.6485 13.75,12.6992 20.628,29.4218 20.628,50.1601 0,20.1997 -6.492,36.5587 -19.378,49.0587 -12.731,12.5 -29.18,18.75 -49.372,18.75 h -2.191 c -0.629,0 -1.25,-0.078 -1.879,-0.149 z" /><path
         id="path74"
         style="fill:#621212;fill-opacity:1;fill-rule:nonzero;stroke:none"
         d="m 1116.09,145.98 c -2.3,1.559 -4.84,2.34 -7.65,2.34 -2.74,0 -5.55,-0.699 -8.44,-2.031 -2.93,-1.25 -6.02,-3.051 -9.22,-5.309 -6.68,-4.808 -12.89,-11.21 -18.59,-19.218 V 10.1992 h -60.78 V 161.449 h 60.78 V 137.23 c 16.13,17.809 34.41,26.719 54.84,26.719 33.32,0 50,-16.179 50,-48.437 V 10.1992 h -60.94 z" /><path
         id="path76"
         style="fill:#621212;fill-opacity:1;fill-rule:nonzero;stroke:none"
         d="m 1281.37,7.53906 c -36.99,0 -55.47,16.87114 -55.47,50.62114 l -0.16,92.9688 -16.25,-0.777 c -5.11,0 -7.65,1.918 -7.65,5.777 0,3.953 2.73,5.941 8.28,5.941 l 13.59,-0.621 h 2.03 v 21.871 l 60.78,27.192 v -49.063 h 18.91 l 13.44,0.621 c 5.62,0 8.43,-2.031 8.43,-6.09 0,-1.8 -0.78,-3.21 -2.34,-4.218 -1.56,-0.942 -3.36,-1.41 -5.31,-1.41 l -17.5,0.777 h -15.63 V 18.0117 c 11.02,0.1875 20.24,3.3594 27.66,9.5274 3.44,2.582 5.86,5.9804 7.34,10.1601 1.45,4.1406 2.74,6.7891 3.91,7.961 1.25,1.1406 2.66,1.7187 4.22,1.7187 1.64,0 3.01,-0.6172 4.06,-1.8672 1.13,-1.25 1.72,-2.7812 1.72,-4.5312 0,-1.8008 -0.47,-3.711 -1.41,-5.7813 -0.93,-2.1094 -2.34,-4.3398 -4.22,-6.7187 -4.29,-5.3203 -9.18,-9.5313 -14.68,-12.6602 -10.12,-5.5508 -21.37,-8.28124 -33.75,-8.28124 z" /><path
         id="path78"
         style="fill:#621212;fill-opacity:1;fill-rule:nonzero;stroke:none"
         d="m 1454.41,19.5703 c -12.11,-8.0508 -25.46,-12.03124 -40.15,-12.03124 -19.61,0 -35.28,4.88284 -47.03,14.69144 -12.31,10.0703 -18.44,24.1015 -18.44,42.0312 0,15.8203 6.09,28.8281 18.28,39.0583 12.5,10.309 28.83,15.469 49.06,15.469 13.64,0 26.41,-2.617 38.28,-7.809 v 38.899 c -8.55,2.5 -16.09,3.75 -22.65,3.75 -6.56,0 -12.15,-0.309 -16.72,-0.93 -4.49,-0.551 -8.75,-1.367 -12.81,-2.5 -8.87,-2.429 -15.55,-5.711 -20,-9.847 -2.62,-2.5 -5,-3.75 -7.19,-3.75 -2.19,0 -3.87,0.507 -5,1.558 -1.17,1.141 -1.72,2.391 -1.72,3.75 0,1.328 0.2,2.539 0.63,3.602 0.5,1.008 1.44,2.109 2.81,3.277 2.81,2.5 7.5,4.922 14.06,7.34 13.75,5.203 27.5,7.82 41.25,7.82 41.95,0 68.75,-10 80.31,-30 5.08,-8.867 7.66,-20.551 7.66,-34.9998 v -88.75 h -60.63 z m 0,80.4687 c -11.87,5.699 -23.71,8.59 -35.46,8.59 -2,0 -3.83,-0.149 -5.47,-0.469 V 18.1602 c 0.5,-0.1094 1.01,-0.1485 1.56,-0.1485 0.62,0 1.17,0 1.72,0 12.89,0 25.47,4.5703 37.65,13.75 z" /><path
         id="path80"
         style="fill:#621212;fill-opacity:1;fill-rule:nonzero;stroke:none"
         d="m 1655.94,7.53906 c -13.13,0 -25.86,2.97264 -38.13,8.91014 v -6.25 h -58.12 V 210.512 h 58.12 v -56.25 c 11.96,6.437 24.53,9.687 37.66,9.687 13.12,0 24.61,-1.961 34.53,-5.789 10,-3.859 18.52,-9.18 25.62,-15.93 14.58,-14.378 21.88,-32.781 21.88,-55.1597 0,-22.5 -7.27,-41.25 -21.72,-56.25 -14.92,-15.5508 -34.84,-23.28124 -59.84,-23.28124 z m -0.47,146.08994 c -13.99,0 -26.52,-3.859 -37.66,-11.559 V 28.4805 c 12.39,-7 26.29,-10.4688 41.72,-10.4688 h 3.59 c 1.14,0 2.23,0.0781 3.29,0.3086 V 152.852 c -3.56,0.507 -7.19,0.777 -10.94,0.777 z" /><path
         id="path82"
         style="fill:#621212;fill-opacity:1;fill-rule:nonzero;stroke:none"
         d="m 1773.79,10.1992 h 60.7813 v 200.313 H 1773.79 Z" /><path
         id="path84"
         style="fill:#621212;fill-opacity:1;fill-rule:nonzero;stroke:none"
         d="m 2012.23,44.5703 c 3.63,0 5.47,-1.6797 5.47,-5 0,-2.6211 -1.68,-5.6211 -5,-9.0586 -14.93,-15.3125 -35.32,-22.97264 -61.25,-22.97264 -23.36,0 -42.97,7.03124 -58.91,21.08984 -16.56,14.5703 -24.84,33.0508 -24.84,55.4727 0,22.8084 7.5,41.5974 22.5,56.4104 15.7,15.617 36.64,23.437 62.81,23.437 20.94,0 38.51,-6.367 52.81,-19.07 15.39,-13.75 23.13,-31.719 23.13,-53.8985 0,-3.25 -0.12,-6.6797 -0.32,-10.3203 H 1935.2 V 20.0391 c 6.32,-1.3672 13.51,-2.0274 21.56,-2.0274 17.07,0 31.6,5.6172 43.59,16.8672 2.38,2.3906 4.1,4.3008 5.16,5.7813 2.19,2.5781 4.41,3.9101 6.72,3.9101 z M 1974.41,150.98 c -6.17,1.75 -13.12,2.649 -20.93,2.649 -7.74,0 -13.83,-0.539 -18.28,-1.559 V 90.9805 h 39.21 z" /><path
         id="path86"
         style="fill:#621212;fill-opacity:1;fill-rule:nonzero;stroke:none"
         d="m 2247.77,138.789 -5.93,0.16 c -2.11,0.192 -4.69,0.313 -7.82,0.313 H 2202.3 V 10.1992 h -72.34 V 210.512 h 112.5 l 14.06,0.468 h 2.5 c 7.07,0 10.63,-2.109 10.63,-6.25 0,-1.57 -0.63,-3.05 -1.88,-4.378 -1.25,-1.372 -2.65,-2.032 -4.22,-2.032 -2.5,0 -4.84,0.2 -7.03,0.629 -4.37,0.93 -10.07,1.403 -17.03,1.403 H 2202.3 V 149.41 h 28.44 c 0,0 5.82,0.199 17.5,0.629 5.08,0 7.66,-1.879 7.66,-5.629 0,-3.75 -2.74,-5.621 -8.13,-5.621 z" /><path
         id="path88"
         style="fill:#621212;fill-opacity:1;fill-rule:nonzero;stroke:none"
         d="m 2323.44,186.129 c -9.69,0 -17.31,2.191 -22.82,6.57 -5.42,4.371 -8.12,10.071 -8.12,17.18 0,5.941 3.01,11.019 9.06,15.32 6.33,4.449 13.13,6.711 20.32,6.711 7.18,0 12.69,-0.738 16.56,-2.18 3.94,-1.371 7.34,-3.21 10.15,-5.468 5.39,-4.614 8.13,-9.961 8.13,-16.102 0,-6.172 -3.13,-11.359 -9.38,-15.621 -6.25,-4.301 -14.22,-6.41 -23.9,-6.41 z m -29.69,-24.68 h 60.7813 V 10.199 H 2293.75 Z" /><path
         id="path90"
         style="fill:#621212;fill-opacity:1;fill-rule:nonzero;stroke:none"
         d="m 2389.69,29.1016 c 0,1.4492 0.47,2.7382 1.4,3.9101 1.02,1.25 2.35,1.8672 3.91,1.8672 1.64,0 3.01,-0.4687 4.06,-1.3984 0,0 1.17,-1.1016 3.6,-3.2813 9.76,-8.6797 23.47,-12.9687 41.09,-12.9687 11.87,0 19.53,2.4179 22.97,7.3398 0.94,1.3281 1.4,2.6992 1.4,4.0586 0,1.332 -0.27,2.6602 -0.78,3.9102 -0.54,1.332 -1.64,2.8906 -3.28,4.6914 -1.68,1.8711 -4.06,4.1015 -7.18,6.7187 l -12.5,10 c -20.63,16.0117 -34.77,29.0625 -42.35,39.0625 -6.99,9.1363 -10.47,18.5083 -10.47,28.1173 0,11.961 5.51,22.031 16.56,30.16 11.45,8.441 26.26,12.66 44.38,12.66 12.7,0 22.7,-1.488 30,-4.379 7.38,-2.929 12.58,-5.59 15.62,-7.968 3.01,-2.422 4.54,-4.614 4.54,-6.563 0,-4.059 -1.64,-6.09 -4.85,-6.09 -1.48,0 -2.81,0.5 -4.06,1.563 -1.25,1.129 -3.83,2.968 -7.66,5.468 -3.75,2.571 -8.75,4.61 -15,6.09 -6.25,1.559 -12.11,2.34 -17.5,2.34 -5.31,0 -9.14,-0.859 -11.4,-2.5 -2.19,-1.68 -3.28,-3.359 -3.28,-5 0,-1.68 0.31,-3.238 0.93,-4.68 0.71,-1.492 1.96,-3.21 3.75,-5.16 4.14,-4.922 10.82,-10.738 20,-17.5 9.14,-6.679 16.92,-12.808 23.29,-18.441 6.32,-5.5392 11.28,-10.6173 14.84,-15.3087 6.44,-8.5508 9.69,-17.1484 9.69,-25.7812 0,-8.668 -1.64,-16.0899 -4.85,-22.3399 -3.12,-6.1797 -7.65,-11.4883 -13.59,-15.9375 -12.62,-9.4922 -29.38,-14.22264 -50.31,-14.22264 -16.8,0 -30.78,3.16014 -42.04,9.53124 -7.3,4.0586 -10.93,8.0508 -10.93,12.0313 z" /><path
         id="path92"
         style="fill:#621212;fill-opacity:1;fill-rule:nonzero;stroke:none"
         d="m 2602.34,19.2617 c 4.46,-0.8633 8.95,-1.25 13.44,-1.25 4.45,0 8.79,0.3086 12.97,0.9375 4.26,0.6992 8.28,1.75 12.03,3.1211 8.01,2.8086 14.45,6.4102 19.38,10.7813 3.51,3.0078 6.09,4.5273 7.65,4.5273 3.52,0 5.31,-1.6406 5.31,-4.8398 0,-3.2383 -2.92,-7.0274 -8.74,-11.4102 -13.56,-9.0586 -29.85,-13.58984 -48.91,-13.58984 -24.92,0 -44.96,7.42184 -60.16,22.33984 -15.11,14.6914 -22.65,33.793 -22.65,57.3516 0,22.2575 8,40.6605 24.06,55.1485 15.82,14.383 35.7,21.57 59.69,21.57 13.63,0 26.79,-2.82 39.53,-8.437 9.57,-4.18 14.37,-8.524 14.37,-12.973 0,-1.879 -0.58,-3.359 -1.72,-4.379 -1.05,-0.93 -2.18,-1.398 -3.43,-1.398 -2,0 -4.54,1.09 -7.66,3.277 -6.17,5.82 -15.27,9.922 -27.34,12.34 -4.38,0.82 -9.18,1.25 -14.38,1.25 -5.12,0 -9.61,-0.391 -13.44,-1.09 z" /><path
         id="path94"
         style="fill:#621212;fill-opacity:1;fill-rule:nonzero;stroke:none"
         d="m 2800.2,19.5703 c -12.11,-8.0508 -25.47,-12.03124 -40.16,-12.03124 -19.61,0 -35.27,4.88284 -47.03,14.69144 -12.31,10.0703 -18.44,24.1015 -18.44,42.0312 0,15.8203 6.09,28.8281 18.28,39.0583 12.5,10.309 28.83,15.469 49.06,15.469 13.64,0 26.41,-2.617 38.29,-7.809 v 38.899 c -8.56,2.5 -16.1,3.75 -22.66,3.75 -6.56,0 -12.15,-0.309 -16.72,-0.93 -4.49,-0.551 -8.75,-1.367 -12.81,-2.5 -8.87,-2.429 -15.55,-5.711 -20,-9.847 -2.62,-2.5 -5,-3.75 -7.19,-3.75 -2.19,0 -3.87,0.507 -5,1.558 -1.17,1.141 -1.72,2.391 -1.72,3.75 0,1.328 0.2,2.539 0.63,3.602 0.5,1.008 1.44,2.109 2.81,3.277 2.81,2.5 7.5,4.922 14.06,7.34 13.75,5.203 27.5,7.82 41.25,7.82 41.95,0 68.75,-10 80.31,-30 5.08,-8.867 7.66,-20.551 7.66,-34.9998 v -88.75 h -60.62 z m 0,80.4687 c -11.88,5.699 -23.72,8.59 -35.47,8.59 -2,0 -3.83,-0.149 -5.47,-0.469 V 18.1602 c 0.51,-0.1094 1.01,-0.1485 1.56,-0.1485 0.63,0 1.17,0 1.72,0 12.89,0 25.47,4.5703 37.66,13.75 z" /><path
         id="path96"
         style="fill:#621212;fill-opacity:1;fill-rule:nonzero;stroke:none"
         d="m 2905.47,10.1992 h 60.7813 v 200.313 H 2905.47 Z" /><path
         id="path98"
         style="fill:#621212;fill-opacity:1;fill-rule:nonzero;stroke:none"
         d="m 3198.95,23.0117 c 5,0 7.5,-2.1133 7.5,-6.25 0,-1.8008 -1.06,-3.3633 -3.13,-4.6914 -1.99,-1.25 -5.59,-1.8711 -10.78,-1.8711 h -115 V 210.512 h 72.34 V 19.5703 h 26.41 c 5.94,0 11.01,0.5508 15.31,1.7188 4.38,1.1328 6.8,1.7226 7.35,1.7226 z" /><path
         id="path100"
         style="fill:#621212;fill-opacity:1;fill-rule:nonzero;stroke:none"
         d="m 3327.54,19.5703 c -12.11,-8.0508 -25.47,-12.03124 -40.16,-12.03124 -19.61,0 -35.27,4.88284 -47.03,14.69144 -12.3,10.0703 -18.44,24.1015 -18.44,42.0312 0,15.8203 6.1,28.8281 18.29,39.0583 12.5,10.309 28.82,15.469 49.06,15.469 13.63,0 26.4,-2.617 38.28,-7.809 v 38.899 c -8.56,2.5 -16.09,3.75 -22.66,3.75 -6.56,0 -12.15,-0.309 -16.72,-0.93 -4.49,-0.551 -8.75,-1.367 -12.81,-2.5 -8.87,-2.429 -15.55,-5.711 -20,-9.847 -2.62,-2.5 -5,-3.75 -7.19,-3.75 -2.18,0 -3.86,0.507 -5,1.558 -1.17,1.141 -1.71,2.391 -1.71,3.75 0,1.328 0.19,2.539 0.62,3.602 0.51,1.008 1.45,2.109 2.81,3.277 2.82,2.5 7.5,4.922 14.07,7.34 13.75,5.203 27.5,7.82 41.25,7.82 41.95,0 68.75,-10 80.31,-30 5.08,-8.867 7.65,-20.551 7.65,-34.9998 v -88.75 h -60.62 z m 0,80.4687 c -11.88,5.699 -23.71,8.59 -35.47,8.59 -1.99,0 -3.83,-0.149 -5.47,-0.469 V 18.1602 c 0.51,-0.1094 1.02,-0.1485 1.56,-0.1485 0.63,0 1.18,0 1.72,0 12.89,0 25.47,4.5703 37.66,13.75 z" /><path
         id="path102"
         style="fill:#621212;fill-opacity:1;fill-rule:nonzero;stroke:none"
         d="m 3529.02,7.53906 c -13.12,0 -25.86,2.97264 -38.12,8.91014 v -6.25 h -58.13 V 210.512 h 58.13 v -56.25 c 11.95,6.437 24.53,9.687 37.65,9.687 13.13,0 24.61,-1.961 34.54,-5.789 10,-3.859 18.51,-9.18 25.62,-15.93 14.57,-14.378 21.88,-32.781 21.88,-55.1597 0,-22.5 -7.27,-41.25 -21.72,-56.25 -14.92,-15.5508 -34.85,-23.28124 -59.85,-23.28124 z m -0.47,146.08994 c -13.98,0 -26.52,-3.859 -37.65,-11.559 V 28.4805 c 12.38,-7 26.29,-10.4688 41.72,-10.4688 h 3.59 c 1.13,0 2.23,0.0781 3.28,0.3086 V 152.852 c -3.55,0.507 -7.19,0.777 -10.94,0.777 z" /><path
         id="path104"
         style="fill:#621212;fill-opacity:1;fill-rule:nonzero;stroke:none"
         d="m 3633.75,86.6016 c 0,11.3281 2.03,21.6364 6.09,30.9374 4.14,9.371 9.85,17.5 17.04,24.371 15.5,14.692 35,22.039 58.43,22.039 23.83,0 43.28,-7.66 58.28,-22.969 14.38,-14.378 21.57,-32.621 21.57,-54.6909 0,-22.1875 -7.43,-40.7383 -22.19,-55.6289 -15.24,-15.4297 -34.65,-23.12114 -58.28,-23.12114 -23.13,0 -42.31,7.26174 -57.5,21.87114 -15.63,15.0781 -23.44,34.1406 -23.44,57.1914 z m 77.03,-68.4414 c 0.7,-0.1094 1.45,-0.1485 2.19,-0.1485 h 2.03 c 19.06,0 35.04,5.8594 47.97,17.6485 13.75,12.6992 20.62,29.4218 20.62,50.1601 0,20.1997 -6.48,36.5587 -19.37,49.0587 -12.74,12.5 -29.18,18.75 -49.38,18.75 h -2.18 c -0.63,0 -1.25,-0.078 -1.88,-0.149 z" /><path
         id="path106"
         style="fill:#621212;fill-opacity:1;fill-rule:nonzero;stroke:none"
         d="m 3831.52,161.449 h 60.78 V 116.91 c 6.57,16.141 13.6,28.012 21.1,35.629 7.5,7.582 15.04,11.41 22.65,11.41 4.15,0 7.5,-1.097 10,-3.289 2.5,-2.18 3.75,-4.68 3.75,-7.5 0,-2.73 -0.39,-4.922 -1.09,-6.558 -0.74,-1.563 -1.72,-2.93 -2.97,-4.063 -2.5,-2.309 -4.92,-3.437 -7.19,-3.437 -3.67,0 -6.32,0.347 -7.96,1.097 -2.93,1.321 -5.55,2.031 -7.82,2.031 -2.18,0 -5.07,-1.839 -8.59,-5.468 -3.44,-3.672 -6.8,-8.711 -10,-15.16 -7.93,-15.622 -11.88,-32.6215 -11.88,-50.9418 v -60.461 h -60.78 z" /><path
         id="path108"
         style="fill:#621212;fill-opacity:1;fill-rule:nonzero;stroke:none"
         d="m 4062.73,19.5703 c -12.11,-8.0508 -25.46,-12.03124 -40.15,-12.03124 -19.61,0 -35.28,4.88284 -47.03,14.69144 -12.31,10.0703 -18.44,24.1015 -18.44,42.0312 0,15.8203 6.09,28.8281 18.28,39.0583 12.5,10.309 28.83,15.469 49.06,15.469 13.64,0 26.41,-2.617 38.28,-7.809 v 38.899 c -8.55,2.5 -16.09,3.75 -22.65,3.75 -6.56,0 -12.15,-0.309 -16.72,-0.93 -4.49,-0.551 -8.75,-1.367 -12.81,-2.5 -8.87,-2.429 -15.55,-5.711 -20,-9.847 -2.62,-2.5 -5,-3.75 -7.19,-3.75 -2.19,0 -3.87,0.507 -5,1.558 -1.17,1.141 -1.72,2.391 -1.72,3.75 0,1.328 0.2,2.539 0.63,3.602 0.5,1.008 1.44,2.109 2.81,3.277 2.81,2.5 7.5,4.922 14.06,7.34 13.75,5.203 27.5,7.82 41.25,7.82 41.95,0 68.75,-10 80.31,-30 5.08,-8.867 7.66,-20.551 7.66,-34.9998 v -88.75 h -60.63 z m 0,80.4687 c -11.87,5.699 -23.71,8.59 -35.46,8.59 -2,0 -3.83,-0.149 -5.47,-0.469 V 18.1602 c 0.5,-0.1094 1.01,-0.1485 1.56,-0.1485 0.62,0 1.17,0 1.72,0 12.89,0 25.47,4.5703 37.65,13.75 z" /><path
         id="path110"
         style="fill:#621212;fill-opacity:1;fill-rule:nonzero;stroke:none"
         d="m 4167.97,10.1992 h 60.7813 v 200.313 H 4167.97 Z" /></g></g></svg>